name: Terminus Bold 12x24
spacing: character-cell
cell-size: 12 24
family: Terminus
foundry: xos4
copyright: Copyright (C) 2020 Dimitar Toshkov Zhekov
notice: Licensed under the SIL Open Font License, Version 1.1
point-size: 24
weight: bold
slant: roman
setwidth: normal
dpi: 72 72
average-width: 12
ascent: 19
descent: 5
shift-up: -5
encoding: iso10646-1
default-char: u+fffd
min-word-space: 12
converter: monobit v0.32
source-name: ter-u24b.bdf
source-format: BDF v2.1
history: load --format=bdf

u+0000:
char0:
    ............
    ............
    ............
    ............
    .@@@@..@@@@.
    .@@......@@.
    .@@......@@.
    .@@......@@.
    ............
    ............
    .@@......@@.
    .@@......@@.
    .@@......@@.
    ............
    ............
    .@@......@@.
    .@@......@@.
    .@@......@@.
    .@@@@..@@@@.
    ............
    ............
    ............
    ............
    ............

u+0020:
space:
    ............
    ............
    ............
    ............
    ............
    ............
    ............
    ............
    ............
    ............
    ............
    ............
    ............
    ............
    ............
    ............
    ............
    ............
    ............
    ............
    ............
    ............
    ............
    ............

u+0021:
exclam:
    ............
    ............
    ............
    ............
    .....@@.....
    .....@@.....
    .....@@.....
    .....@@.....
    .....@@.....
    .....@@.....
    .....@@.....
    .....@@.....
    .....@@.....
    .....@@.....
    ............
    ............
    .....@@.....
    .....@@.....
    .....@@.....
    ............
    ............
    ............
    ............
    ............

u+0022:
quotedbl:
    ............
    ............
    ...@@..@@...
    ...@@..@@...
    ...@@..@@...
    ...@@..@@...
    ...@@..@@...
    ............
    ............
    ............
    ............
    ............
    ............
    ............
    ............
    ............
    ............
    ............
    ............
    ............
    ............
    ............
    ............
    ............

u+0023:
numbersign:
    ............
    ............
    ............
    ............
    ...@@..@@...
    ...@@..@@...
    ...@@..@@...
    ...@@..@@...
    .@@@@@@@@@@.
    ...@@..@@...
    ...@@..@@...
    ...@@..@@...
    ...@@..@@...
    ...@@..@@...
    .@@@@@@@@@@.
    ...@@..@@...
    ...@@..@@...
    ...@@..@@...
    ...@@..@@...
    ............
    ............
    ............
    ............
    ............

u+0024:
dollar:
    ............
    ............
    ............
    .....@@.....
    .....@@.....
    ...@@@@@@...
    ..@@.@@.@@..
    .@@..@@..@@.
    .@@..@@.....
    .@@..@@.....
    ..@@.@@.....
    ...@@@@@@...
    .....@@.@@..
    .....@@..@@.
    .....@@..@@.
    .@@..@@..@@.
    ..@@.@@.@@..
    ...@@@@@@...
    .....@@.....
    .....@@.....
    ............
    ............
    ............
    ............

u+0025:
percent:
    ............
    ............
    ............
    ............
    ............
    ..@@@...@@..
    .@@.@@..@@..
    .@@.@@.@@...
    ..@@@..@@...
    ......@@....
    ......@@....
    .....@@.....
    .....@@.....
    ....@@......
    ....@@......
    ...@@..@@@..
    ...@@.@@.@@.
    ..@@..@@.@@.
    ..@@...@@@..
    ............
    ............
    ............
    ............
    ............

u+0026:
ampersand:
    ............
    ............
    ............
    ............
    ....@@@.....
    ...@@.@@....
    ..@@...@@...
    ..@@...@@...
    ..@@...@@...
    ...@@.@@....
    ....@@@.....
    ...@@@@..@@.
    ..@@..@@.@@.
    .@@....@@@..
    .@@.....@@..
    .@@.....@@..
    .@@....@@@..
    ..@@..@@.@@.
    ...@@@@..@@.
    ............
    ............
    ............
    ............
    ............

u+0027:
quotesingle:
    ............
    ............
    .....@@.....
    .....@@.....
    .....@@.....
    .....@@.....
    .....@@.....
    ............
    ............
    ............
    ............
    ............
    ............
    ............
    ............
    ............
    ............
    ............
    ............
    ............
    ............
    ............
    ............
    ............

u+0028:
parenleft:
    ............
    ............
    ............
    ............
    ......@@....
    .....@@.....
    ....@@......
    ....@@......
    ...@@.......
    ...@@.......
    ...@@.......
    ...@@.......
    ...@@.......
    ...@@.......
    ...@@.......
    ....@@......
    ....@@......
    .....@@.....
    ......@@....
    ............
    ............
    ............
    ............
    ............

u+0029:
parenright:
    ............
    ............
    ............
    ............
    ...@@.......
    ....@@......
    .....@@.....
    .....@@.....
    ......@@....
    ......@@....
    ......@@....
    ......@@....
    ......@@....
    ......@@....
    ......@@....
    .....@@.....
    .....@@.....
    ....@@......
    ...@@.......
    ............
    ............
    ............
    ............
    ............

u+002a:
asterisk:
    ............
    ............
    ............
    ............
    ............
    ............
    ............
    .@@.....@@..
    ..@@...@@...
    ...@@.@@....
    ....@@@.....
    @@@@@@@@@@@.
    ....@@@.....
    ...@@.@@....
    ..@@...@@...
    .@@.....@@..
    ............
    ............
    ............
    ............
    ............
    ............
    ............
    ............

u+002b:
plus:
    ............
    ............
    ............
    ............
    ............
    ............
    ............
    .....@@.....
    .....@@.....
    .....@@.....
    .....@@.....
    .@@@@@@@@@@.
    .....@@.....
    .....@@.....
    .....@@.....
    .....@@.....
    ............
    ............
    ............
    ............
    ............
    ............
    ............
    ............

u+002c:
comma:
    ............
    ............
    ............
    ............
    ............
    ............
    ............
    ............
    ............
    ............
    ............
    ............
    ............
    ............
    ............
    .....@@.....
    .....@@.....
    .....@@.....
    .....@@.....
    ....@@......
    ............
    ............
    ............
    ............

u+002d:
hyphen:
    ............
    ............
    ............
    ............
    ............
    ............
    ............
    ............
    ............
    ............
    ............
    .@@@@@@@@@@.
    ............
    ............
    ............
    ............
    ............
    ............
    ............
    ............
    ............
    ............
    ............
    ............

u+002e:
period:
    ............
    ............
    ............
    ............
    ............
    ............
    ............
    ............
    ............
    ............
    ............
    ............
    ............
    ............
    ............
    ............
    .....@@.....
    .....@@.....
    .....@@.....
    ............
    ............
    ............
    ............
    ............

u+002f:
slash:
    ............
    ............
    ............
    ............
    ............
    ........@@..
    ........@@..
    .......@@...
    .......@@...
    ......@@....
    ......@@....
    .....@@.....
    .....@@.....
    ....@@......
    ....@@......
    ...@@.......
    ...@@.......
    ..@@........
    ..@@........
    ............
    ............
    ............
    ............
    ............

u+0030:
zero:
    ............
    ............
    ............
    ............
    ...@@@@@@...
    ..@@....@@..
    .@@......@@.
    .@@......@@.
    .@@.....@@@.
    .@@....@@@@.
    .@@...@@.@@.
    .@@..@@..@@.
    .@@.@@...@@.
    .@@@@....@@.
    .@@@.....@@.
    .@@......@@.
    .@@......@@.
    ..@@....@@..
    ...@@@@@@...
    ............
    ............
    ............
    ............
    ............

u+0031:
one:
    ............
    ............
    ............
    ............
    .....@@.....
    ....@@@.....
    ...@@@@.....
    ..@@.@@.....
    .....@@.....
    .....@@.....
    .....@@.....
    .....@@.....
    .....@@.....
    .....@@.....
    .....@@.....
    .....@@.....
    .....@@.....
    .....@@.....
    ..@@@@@@@@..
    ............
    ............
    ............
    ............
    ............

u+0032:
two:
    ............
    ............
    ............
    ............
    ...@@@@@@...
    ..@@....@@..
    .@@......@@.
    .@@......@@.
    .@@......@@.
    .........@@.
    ........@@..
    .......@@...
    ......@@....
    .....@@.....
    ....@@......
    ...@@.......
    ..@@........
    .@@.........
    .@@@@@@@@@@.
    ............
    ............
    ............
    ............
    ............

u+0033:
three:
    ............
    ............
    ............
    ............
    ...@@@@@@...
    ..@@....@@..
    .@@......@@.
    .........@@.
    .........@@.
    .........@@.
    ........@@..
    ....@@@@@...
    ........@@..
    .........@@.
    .........@@.
    .........@@.
    .@@......@@.
    ..@@....@@..
    ...@@@@@@...
    ............
    ............
    ............
    ............
    ............

u+0034:
four:
    ............
    ............
    ............
    ............
    .........@@.
    ........@@@.
    .......@@@@.
    ......@@.@@.
    .....@@..@@.
    ....@@...@@.
    ...@@....@@.
    ..@@.....@@.
    .@@......@@.
    .@@......@@.
    .@@......@@.
    .@@@@@@@@@@.
    .........@@.
    .........@@.
    .........@@.
    ............
    ............
    ............
    ............
    ............

u+0035:
five:
    ............
    ............
    ............
    ............
    .@@@@@@@@@@.
    .@@.........
    .@@.........
    .@@.........
    .@@.........
    .@@.........
    .@@@@@@@@...
    ........@@..
    .........@@.
    .........@@.
    .........@@.
    .........@@.
    .@@......@@.
    ..@@....@@..
    ...@@@@@@...
    ............
    ............
    ............
    ............
    ............

u+0036:
six:
    ............
    ............
    ............
    ............
    ...@@@@@@@..
    ..@@........
    .@@.........
    .@@.........
    .@@.........
    .@@.........
    .@@@@@@@@...
    .@@.....@@..
    .@@......@@.
    .@@......@@.
    .@@......@@.
    .@@......@@.
    .@@......@@.
    ..@@....@@..
    ...@@@@@@...
    ............
    ............
    ............
    ............
    ............

u+0037:
seven:
    ............
    ............
    ............
    ............
    .@@@@@@@@@@.
    .@@......@@.
    .@@......@@.
    .........@@.
    ........@@..
    ........@@..
    .......@@...
    .......@@...
    ......@@....
    ......@@....
    .....@@.....
    .....@@.....
    .....@@.....
    .....@@.....
    .....@@.....
    ............
    ............
    ............
    ............
    ............

u+0038:
eight:
    ............
    ............
    ............
    ............
    ...@@@@@@...
    ..@@....@@..
    .@@......@@.
    .@@......@@.
    .@@......@@.
    .@@......@@.
    ..@@....@@..
    ...@@@@@@...
    ..@@....@@..
    .@@......@@.
    .@@......@@.
    .@@......@@.
    .@@......@@.
    ..@@....@@..
    ...@@@@@@...
    ............
    ............
    ............
    ............
    ............

u+0039:
nine:
    ............
    ............
    ............
    ............
    ...@@@@@@...
    ..@@....@@..
    .@@......@@.
    .@@......@@.
    .@@......@@.
    .@@......@@.
    .@@......@@.
    ..@@.....@@.
    ...@@@@@@@@.
    .........@@.
    .........@@.
    .........@@.
    .........@@.
    ........@@..
    ..@@@@@@@...
    ............
    ............
    ............
    ............
    ............

u+003a:
colon:
    ............
    ............
    ............
    ............
    ............
    ............
    ............
    ............
    .....@@.....
    .....@@.....
    .....@@.....
    ............
    ............
    ............
    ............
    .....@@.....
    .....@@.....
    .....@@.....
    ............
    ............
    ............
    ............
    ............
    ............

u+003b:
semicolon:
    ............
    ............
    ............
    ............
    ............
    ............
    ............
    ............
    .....@@.....
    .....@@.....
    .....@@.....
    ............
    ............
    ............
    ............
    .....@@.....
    .....@@.....
    .....@@.....
    .....@@.....
    ....@@......
    ............
    ............
    ............
    ............

u+003c:
less:
    ............
    ............
    ............
    ............
    ........@@..
    .......@@...
    ......@@....
    .....@@.....
    ....@@......
    ...@@.......
    ..@@........
    .@@.........
    ..@@........
    ...@@.......
    ....@@......
    .....@@.....
    ......@@....
    .......@@...
    ........@@..
    ............
    ............
    ............
    ............
    ............

u+003d:
equal:
    ............
    ............
    ............
    ............
    ............
    ............
    ............
    ............
    ............
    .@@@@@@@@@@.
    ............
    ............
    ............
    ............
    .@@@@@@@@@@.
    ............
    ............
    ............
    ............
    ............
    ............
    ............
    ............
    ............

u+003e:
greater:
    ............
    ............
    ............
    ............
    .@@.........
    ..@@........
    ...@@.......
    ....@@......
    .....@@.....
    ......@@....
    .......@@...
    ........@@..
    .......@@...
    ......@@....
    .....@@.....
    ....@@......
    ...@@.......
    ..@@........
    .@@.........
    ............
    ............
    ............
    ............
    ............

u+003f:
question:
    ............
    ............
    ............
    ............
    ...@@@@@@...
    ..@@....@@..
    .@@......@@.
    .@@......@@.
    .@@......@@.
    ........@@..
    .......@@...
    ......@@....
    .....@@.....
    .....@@.....
    ............
    ............
    .....@@.....
    .....@@.....
    .....@@.....
    ............
    ............
    ............
    ............
    ............

u+0040:
at:
    ............
    ............
    ............
    ............
    ..@@@@@@@...
    .@@.....@@..
    @@.......@@.
    @@....@@@@@.
    @@...@@..@@.
    @@..@@...@@.
    @@..@@...@@.
    @@..@@...@@.
    @@..@@...@@.
    @@..@@...@@.
    @@...@@..@@.
    @@....@@@@@.
    @@..........
    .@@.........
    ..@@@@@@@@@.
    ............
    ............
    ............
    ............
    ............

u+0041:
"A":
    ............
    ............
    ............
    ............
    ...@@@@@@...
    ..@@....@@..
    .@@......@@.
    .@@......@@.
    .@@......@@.
    .@@......@@.
    .@@......@@.
    .@@......@@.
    .@@@@@@@@@@.
    .@@......@@.
    .@@......@@.
    .@@......@@.
    .@@......@@.
    .@@......@@.
    .@@......@@.
    ............
    ............
    ............
    ............
    ............

u+0042:
"B":
    ............
    ............
    ............
    ............
    .@@@@@@@@...
    .@@.....@@..
    .@@......@@.
    .@@......@@.
    .@@......@@.
    .@@.....@@..
    .@@@@@@@@...
    .@@.....@@..
    .@@......@@.
    .@@......@@.
    .@@......@@.
    .@@......@@.
    .@@......@@.
    .@@.....@@..
    .@@@@@@@@...
    ............
    ............
    ............
    ............
    ............

u+0043:
"C":
    ............
    ............
    ............
    ............
    ...@@@@@@...
    ..@@....@@..
    .@@......@@.
    .@@......@@.
    .@@.........
    .@@.........
    .@@.........
    .@@.........
    .@@.........
    .@@.........
    .@@.........
    .@@......@@.
    .@@......@@.
    ..@@....@@..
    ...@@@@@@...
    ............
    ............
    ............
    ............
    ............

u+0044:
"D":
    ............
    ............
    ............
    ............
    .@@@@@@@@...
    .@@.....@@..
    .@@......@@.
    .@@......@@.
    .@@......@@.
    .@@......@@.
    .@@......@@.
    .@@......@@.
    .@@......@@.
    .@@......@@.
    .@@......@@.
    .@@......@@.
    .@@......@@.
    .@@.....@@..
    .@@@@@@@@...
    ............
    ............
    ............
    ............
    ............

u+0045:
"E":
    ............
    ............
    ............
    ............
    .@@@@@@@@@@.
    .@@.........
    .@@.........
    .@@.........
    .@@.........
    .@@.........
    .@@.........
    .@@@@@@@@...
    .@@.........
    .@@.........
    .@@.........
    .@@.........
    .@@.........
    .@@.........
    .@@@@@@@@@@.
    ............
    ............
    ............
    ............
    ............

u+0046:
"F":
    ............
    ............
    ............
    ............
    .@@@@@@@@@@.
    .@@.........
    .@@.........
    .@@.........
    .@@.........
    .@@.........
    .@@.........
    .@@@@@@@@...
    .@@.........
    .@@.........
    .@@.........
    .@@.........
    .@@.........
    .@@.........
    .@@.........
    ............
    ............
    ............
    ............
    ............

u+0047:
"G":
    ............
    ............
    ............
    ............
    ...@@@@@@...
    ..@@....@@..
    .@@......@@.
    .@@......@@.
    .@@.........
    .@@.........
    .@@.........
    .@@...@@@@@.
    .@@......@@.
    .@@......@@.
    .@@......@@.
    .@@......@@.
    .@@......@@.
    ..@@....@@..
    ...@@@@@@...
    ............
    ............
    ............
    ............
    ............

u+0048:
"H":
    ............
    ............
    ............
    ............
    .@@......@@.
    .@@......@@.
    .@@......@@.
    .@@......@@.
    .@@......@@.
    .@@......@@.
    .@@......@@.
    .@@@@@@@@@@.
    .@@......@@.
    .@@......@@.
    .@@......@@.
    .@@......@@.
    .@@......@@.
    .@@......@@.
    .@@......@@.
    ............
    ............
    ............
    ............
    ............

u+0049:
"I":
    ............
    ............
    ............
    ............
    ...@@@@@@...
    .....@@.....
    .....@@.....
    .....@@.....
    .....@@.....
    .....@@.....
    .....@@.....
    .....@@.....
    .....@@.....
    .....@@.....
    .....@@.....
    .....@@.....
    .....@@.....
    .....@@.....
    ...@@@@@@...
    ............
    ............
    ............
    ............
    ............

u+004a:
"J":
    ............
    ............
    ............
    ............
    ......@@@@@@
    ........@@..
    ........@@..
    ........@@..
    ........@@..
    ........@@..
    ........@@..
    ........@@..
    ........@@..
    ........@@..
    .@@.....@@..
    .@@.....@@..
    .@@.....@@..
    ..@@...@@...
    ...@@@@@....
    ............
    ............
    ............
    ............
    ............

u+004b:
"K":
    ............
    ............
    ............
    ............
    .@@......@@.
    .@@.....@@..
    .@@....@@...
    .@@...@@....
    .@@..@@.....
    .@@.@@......
    .@@@@.......
    .@@@........
    .@@@@.......
    .@@.@@......
    .@@..@@.....
    .@@...@@....
    .@@....@@...
    .@@.....@@..
    .@@......@@.
    ............
    ............
    ............
    ............
    ............

u+004c:
"L":
    ............
    ............
    ............
    ............
    .@@.........
    .@@.........
    .@@.........
    .@@.........
    .@@.........
    .@@.........
    .@@.........
    .@@.........
    .@@.........
    .@@.........
    .@@.........
    .@@.........
    .@@.........
    .@@.........
    .@@@@@@@@@@.
    ............
    ............
    ............
    ............
    ............

u+004d:
"M":
    ............
    ............
    ............
    ............
    @.........@.
    @@.......@@.
    @@@.....@@@.
    @@@@...@@@@.
    @@.@@.@@.@@.
    @@..@@@..@@.
    @@...@...@@.
    @@.......@@.
    @@.......@@.
    @@.......@@.
    @@.......@@.
    @@.......@@.
    @@.......@@.
    @@.......@@.
    @@.......@@.
    ............
    ............
    ............
    ............
    ............

u+004e:
"N":
    ............
    ............
    ............
    ............
    .@@......@@.
    .@@......@@.
    .@@......@@.
    .@@......@@.
    .@@@.....@@.
    .@@@@....@@.
    .@@.@@...@@.
    .@@..@@..@@.
    .@@...@@.@@.
    .@@....@@@@.
    .@@.....@@@.
    .@@......@@.
    .@@......@@.
    .@@......@@.
    .@@......@@.
    ............
    ............
    ............
    ............
    ............

u+004f:
"O":
    ............
    ............
    ............
    ............
    ...@@@@@@...
    ..@@....@@..
    .@@......@@.
    .@@......@@.
    .@@......@@.
    .@@......@@.
    .@@......@@.
    .@@......@@.
    .@@......@@.
    .@@......@@.
    .@@......@@.
    .@@......@@.
    .@@......@@.
    ..@@....@@..
    ...@@@@@@...
    ............
    ............
    ............
    ............
    ............

u+0050:
"P":
    ............
    ............
    ............
    ............
    .@@@@@@@@...
    .@@.....@@..
    .@@......@@.
    .@@......@@.
    .@@......@@.
    .@@......@@.
    .@@.....@@..
    .@@@@@@@@...
    .@@.........
    .@@.........
    .@@.........
    .@@.........
    .@@.........
    .@@.........
    .@@.........
    ............
    ............
    ............
    ............
    ............

u+0051:
"Q":
    ............
    ............
    ............
    ............
    ...@@@@@@...
    ..@@....@@..
    .@@......@@.
    .@@......@@.
    .@@......@@.
    .@@......@@.
    .@@......@@.
    .@@......@@.
    .@@......@@.
    .@@......@@.
    .@@......@@.
    .@@......@@.
    .@@..@@..@@.
    ..@@..@@@@..
    ...@@@@@@...
    ........@@..
    .........@@.
    ............
    ............
    ............

u+0052:
"R":
    ............
    ............
    ............
    ............
    .@@@@@@@@...
    .@@.....@@..
    .@@......@@.
    .@@......@@.
    .@@......@@.
    .@@......@@.
    .@@.....@@..
    .@@@@@@@@...
    .@@@@.......
    .@@.@@......
    .@@..@@.....
    .@@...@@....
    .@@....@@...
    .@@.....@@..
    .@@......@@.
    ............
    ............
    ............
    ............
    ............

u+0053:
"S":
    ............
    ............
    ............
    ............
    ...@@@@@@...
    ..@@....@@..
    .@@......@@.
    .@@.........
    .@@.........
    .@@.........
    ..@@........
    ...@@@@@@...
    ........@@..
    .........@@.
    .........@@.
    .........@@.
    .@@......@@.
    ..@@....@@..
    ...@@@@@@...
    ............
    ............
    ............
    ............
    ............

u+0054:
"T":
    ............
    ............
    ............
    ............
    .@@@@@@@@@@.
    .....@@.....
    .....@@.....
    .....@@.....
    .....@@.....
    .....@@.....
    .....@@.....
    .....@@.....
    .....@@.....
    .....@@.....
    .....@@.....
    .....@@.....
    .....@@.....
    .....@@.....
    .....@@.....
    ............
    ............
    ............
    ............
    ............

u+0055:
"U":
    ............
    ............
    ............
    ............
    .@@......@@.
    .@@......@@.
    .@@......@@.
    .@@......@@.
    .@@......@@.
    .@@......@@.
    .@@......@@.
    .@@......@@.
    .@@......@@.
    .@@......@@.
    .@@......@@.
    .@@......@@.
    .@@......@@.
    ..@@....@@..
    ...@@@@@@...
    ............
    ............
    ............
    ............
    ............

u+0056:
"V":
    ............
    ............
    ............
    ............
    .@@......@@.
    .@@......@@.
    .@@......@@.
    .@@......@@.
    ..@@....@@..
    ..@@....@@..
    ..@@....@@..
    ..@@....@@..
    ...@@..@@...
    ...@@..@@...
    ...@@..@@...
    ....@@@@....
    ....@@@@....
    .....@@.....
    .....@@.....
    ............
    ............
    ............
    ............
    ............

u+0057:
"W":
    ............
    ............
    ............
    ............
    @@.......@@.
    @@.......@@.
    @@.......@@.
    @@.......@@.
    @@.......@@.
    @@.......@@.
    @@.......@@.
    @@.......@@.
    @@...@...@@.
    @@..@@@..@@.
    @@.@@.@@.@@.
    @@@@...@@@@.
    @@@.....@@@.
    @@.......@@.
    @.........@.
    ............
    ............
    ............
    ............
    ............

u+0058:
"X":
    ............
    ............
    ............
    ............
    .@@......@@.
    .@@......@@.
    ..@@....@@..
    ..@@....@@..
    ...@@..@@...
    ...@@..@@...
    ....@@@@....
    .....@@.....
    ....@@@@....
    ...@@..@@...
    ...@@..@@...
    ..@@....@@..
    ..@@....@@..
    .@@......@@.
    .@@......@@.
    ............
    ............
    ............
    ............
    ............

u+0059:
"Y":
    ............
    ............
    ............
    ............
    .@@......@@.
    .@@......@@.
    ..@@....@@..
    ..@@....@@..
    ...@@..@@...
    ...@@..@@...
    ....@@@@....
    ....@@@@....
    .....@@.....
    .....@@.....
    .....@@.....
    .....@@.....
    .....@@.....
    .....@@.....
    .....@@.....
    ............
    ............
    ............
    ............
    ............

u+005a:
"Z":
    ............
    ............
    ............
    ............
    .@@@@@@@@@@.
    .........@@.
    .........@@.
    .........@@.
    ........@@..
    .......@@...
    ......@@....
    .....@@.....
    ....@@......
    ...@@.......
    ..@@........
    .@@.........
    .@@.........
    .@@.........
    .@@@@@@@@@@.
    ............
    ............
    ............
    ............
    ............

u+005b:
bracketleft:
    ............
    ............
    ............
    ............
    ...@@@@@....
    ...@@.......
    ...@@.......
    ...@@.......
    ...@@.......
    ...@@.......
    ...@@.......
    ...@@.......
    ...@@.......
    ...@@.......
    ...@@.......
    ...@@.......
    ...@@.......
    ...@@.......
    ...@@@@@....
    ............
    ............
    ............
    ............
    ............

u+005c:
backslash:
    ............
    ............
    ............
    ............
    ............
    ..@@........
    ..@@........
    ...@@.......
    ...@@.......
    ....@@......
    ....@@......
    .....@@.....
    .....@@.....
    ......@@....
    ......@@....
    .......@@...
    .......@@...
    ........@@..
    ........@@..
    ............
    ............
    ............
    ............
    ............

u+005d:
bracketright:
    ............
    ............
    ............
    ............
    ...@@@@@....
    ......@@....
    ......@@....
    ......@@....
    ......@@....
    ......@@....
    ......@@....
    ......@@....
    ......@@....
    ......@@....
    ......@@....
    ......@@....
    ......@@....
    ......@@....
    ...@@@@@....
    ............
    ............
    ............
    ............
    ............

u+005e:
asciicircum:
    ............
    ............
    .....@@.....
    ....@@@@....
    ...@@..@@...
    ..@@....@@..
    .@@......@@.
    ............
    ............
    ............
    ............
    ............
    ............
    ............
    ............
    ............
    ............
    ............
    ............
    ............
    ............
    ............
    ............
    ............

u+005f:
underscore:
    ............
    ............
    ............
    ............
    ............
    ............
    ............
    ............
    ............
    ............
    ............
    ............
    ............
    ............
    ............
    ............
    ............
    ............
    ............
    ............
    .@@@@@@@@@@.
    ............
    ............
    ............

u+0060:
grave:
    ............
    ...@@.......
    ....@@......
    .....@@.....
    ............
    ............
    ............
    ............
    ............
    ............
    ............
    ............
    ............
    ............
    ............
    ............
    ............
    ............
    ............
    ............
    ............
    ............
    ............
    ............

u+0061:
"a":
    ............
    ............
    ............
    ............
    ............
    ............
    ............
    ............
    ..@@@@@@@...
    ........@@..
    .........@@.
    .........@@.
    ...@@@@@@@@.
    ..@@.....@@.
    .@@......@@.
    .@@......@@.
    .@@......@@.
    ..@@.....@@.
    ...@@@@@@@@.
    ............
    ............
    ............
    ............
    ............

u+0062:
"b":
    ............
    ............
    ............
    ............
    .@@.........
    .@@.........
    .@@.........
    .@@.........
    .@@@@@@@@...
    .@@.....@@..
    .@@......@@.
    .@@......@@.
    .@@......@@.
    .@@......@@.
    .@@......@@.
    .@@......@@.
    .@@......@@.
    .@@.....@@..
    .@@@@@@@@...
    ............
    ............
    ............
    ............
    ............

u+0063:
"c":
    ............
    ............
    ............
    ............
    ............
    ............
    ............
    ............
    ...@@@@@@...
    ..@@....@@..
    .@@......@@.
    .@@.........
    .@@.........
    .@@.........
    .@@.........
    .@@.........
    .@@......@@.
    ..@@....@@..
    ...@@@@@@...
    ............
    ............
    ............
    ............
    ............

u+0064:
"d":
    ............
    ............
    ............
    ............
    .........@@.
    .........@@.
    .........@@.
    .........@@.
    ...@@@@@@@@.
    ..@@.....@@.
    .@@......@@.
    .@@......@@.
    .@@......@@.
    .@@......@@.
    .@@......@@.
    .@@......@@.
    .@@......@@.
    ..@@.....@@.
    ...@@@@@@@@.
    ............
    ............
    ............
    ............
    ............

u+0065:
"e":
    ............
    ............
    ............
    ............
    ............
    ............
    ............
    ............
    ...@@@@@@...
    ..@@....@@..
    .@@......@@.
    .@@......@@.
    .@@......@@.
    .@@@@@@@@@@.
    .@@.........
    .@@.........
    .@@.........
    ..@@.....@@.
    ...@@@@@@@..
    ............
    ............
    ............
    ............
    ............

u+0066:
"f":
    ............
    ............
    ............
    ............
    ......@@@@@.
    .....@@.....
    .....@@.....
    .....@@.....
    ..@@@@@@@@..
    .....@@.....
    .....@@.....
    .....@@.....
    .....@@.....
    .....@@.....
    .....@@.....
    .....@@.....
    .....@@.....
    .....@@.....
    .....@@.....
    ............
    ............
    ............
    ............
    ............

u+0067:
"g":
    ............
    ............
    ............
    ............
    ............
    ............
    ............
    ............
    ...@@@@@@@@.
    ..@@.....@@.
    .@@......@@.
    .@@......@@.
    .@@......@@.
    .@@......@@.
    .@@......@@.
    .@@......@@.
    .@@......@@.
    ..@@....@@@.
    ...@@@@@@@@.
    .........@@.
    .........@@.
    ........@@..
    ..@@@@@@@...
    ............

u+0068:
"h":
    ............
    ............
    ............
    ............
    .@@.........
    .@@.........
    .@@.........
    .@@.........
    .@@@@@@@@...
    .@@.....@@..
    .@@......@@.
    .@@......@@.
    .@@......@@.
    .@@......@@.
    .@@......@@.
    .@@......@@.
    .@@......@@.
    .@@......@@.
    .@@......@@.
    ............
    ............
    ............
    ............
    ............

u+0069:
"i":
    ............
    ............
    ............
    ............
    .....@@.....
    .....@@.....
    .....@@.....
    ............
    ...@@@@.....
    .....@@.....
    .....@@.....
    .....@@.....
    .....@@.....
    .....@@.....
    .....@@.....
    .....@@.....
    .....@@.....
    .....@@.....
    ...@@@@@@...
    ............
    ............
    ............
    ............
    ............

u+006a:
"j":
    ............
    ............
    ............
    ............
    ........@@..
    ........@@..
    ........@@..
    ............
    ......@@@@..
    ........@@..
    ........@@..
    ........@@..
    ........@@..
    ........@@..
    ........@@..
    ........@@..
    ........@@..
    ........@@..
    ........@@..
    ..@@....@@..
    ..@@....@@..
    ...@@..@@...
    ....@@@@....
    ............

u+006b:
"k":
    ............
    ............
    ............
    ............
    ..@@........
    ..@@........
    ..@@........
    ..@@........
    ..@@.....@@.
    ..@@....@@..
    ..@@...@@...
    ..@@..@@....
    ..@@.@@.....
    ..@@@@......
    ..@@.@@.....
    ..@@..@@....
    ..@@...@@...
    ..@@....@@..
    ..@@.....@@.
    ............
    ............
    ............
    ............
    ............

u+006c:
"l":
    ............
    ............
    ............
    ............
    ...@@@@.....
    .....@@.....
    .....@@.....
    .....@@.....
    .....@@.....
    .....@@.....
    .....@@.....
    .....@@.....
    .....@@.....
    .....@@.....
    .....@@.....
    .....@@.....
    .....@@.....
    .....@@.....
    ...@@@@@@...
    ............
    ............
    ............
    ............
    ............

u+006d:
"m":
    ............
    ............
    ............
    ............
    ............
    ............
    ............
    ............
    .@@@@@@@@...
    .@@..@@.@@..
    .@@..@@..@@.
    .@@..@@..@@.
    .@@..@@..@@.
    .@@..@@..@@.
    .@@..@@..@@.
    .@@..@@..@@.
    .@@..@@..@@.
    .@@..@@..@@.
    .@@..@@..@@.
    ............
    ............
    ............
    ............
    ............

u+006e:
"n":
    ............
    ............
    ............
    ............
    ............
    ............
    ............
    ............
    .@@@@@@@@...
    .@@.....@@..
    .@@......@@.
    .@@......@@.
    .@@......@@.
    .@@......@@.
    .@@......@@.
    .@@......@@.
    .@@......@@.
    .@@......@@.
    .@@......@@.
    ............
    ............
    ............
    ............
    ............

u+006f:
"o":
    ............
    ............
    ............
    ............
    ............
    ............
    ............
    ............
    ...@@@@@@...
    ..@@....@@..
    .@@......@@.
    .@@......@@.
    .@@......@@.
    .@@......@@.
    .@@......@@.
    .@@......@@.
    .@@......@@.
    ..@@....@@..
    ...@@@@@@...
    ............
    ............
    ............
    ............
    ............

u+0070:
"p":
    ............
    ............
    ............
    ............
    ............
    ............
    ............
    ............
    .@@@@@@@@...
    .@@.....@@..
    .@@......@@.
    .@@......@@.
    .@@......@@.
    .@@......@@.
    .@@......@@.
    .@@......@@.
    .@@......@@.
    .@@.....@@..
    .@@@@@@@@...
    .@@.........
    .@@.........
    .@@.........
    .@@.........
    ............

u+0071:
"q":
    ............
    ............
    ............
    ............
    ............
    ............
    ............
    ............
    ...@@@@@@@@.
    ..@@.....@@.
    .@@......@@.
    .@@......@@.
    .@@......@@.
    .@@......@@.
    .@@......@@.
    .@@......@@.
    .@@......@@.
    ..@@.....@@.
    ...@@@@@@@@.
    .........@@.
    .........@@.
    .........@@.
    .........@@.
    ............

u+0072:
"r":
    ............
    ............
    ............
    ............
    ............
    ............
    ............
    ............
    .@@..@@@@@@.
    .@@.@@......
    .@@@@.......
    .@@@........
    .@@.........
    .@@.........
    .@@.........
    .@@.........
    .@@.........
    .@@.........
    .@@.........
    ............
    ............
    ............
    ............
    ............

u+0073:
"s":
    ............
    ............
    ............
    ............
    ............
    ............
    ............
    ............
    ..@@@@@@@@..
    .@@......@@.
    .@@.........
    .@@.........
    .@@.........
    ..@@@@@@@@..
    .........@@.
    .........@@.
    .........@@.
    .@@......@@.
    ..@@@@@@@@..
    ............
    ............
    ............
    ............
    ............

u+0074:
"t":
    ............
    ............
    ............
    ............
    ....@@......
    ....@@......
    ....@@......
    ....@@......
    .@@@@@@@@...
    ....@@......
    ....@@......
    ....@@......
    ....@@......
    ....@@......
    ....@@......
    ....@@......
    ....@@......
    ....@@......
    .....@@@@@..
    ............
    ............
    ............
    ............
    ............

u+0075:
"u":
    ............
    ............
    ............
    ............
    ............
    ............
    ............
    ............
    .@@......@@.
    .@@......@@.
    .@@......@@.
    .@@......@@.
    .@@......@@.
    .@@......@@.
    .@@......@@.
    .@@......@@.
    .@@......@@.
    ..@@.....@@.
    ...@@@@@@@@.
    ............
    ............
    ............
    ............
    ............

u+0076:
"v":
    ............
    ............
    ............
    ............
    ............
    ............
    ............
    ............
    .@@......@@.
    .@@......@@.
    .@@......@@.
    ..@@....@@..
    ..@@....@@..
    ...@@..@@...
    ...@@..@@...
    ....@@@@....
    ....@@@@....
    .....@@.....
    .....@@.....
    ............
    ............
    ............
    ............
    ............

u+0077:
"w":
    ............
    ............
    ............
    ............
    ............
    ............
    ............
    ............
    .@@......@@.
    .@@......@@.
    .@@......@@.
    .@@......@@.
    .@@..@@..@@.
    .@@..@@..@@.
    .@@..@@..@@.
    .@@..@@..@@.
    .@@..@@..@@.
    .@@..@@..@@.
    ..@@@@@@@@..
    ............
    ............
    ............
    ............
    ............

u+0078:
"x":
    ............
    ............
    ............
    ............
    ............
    ............
    ............
    ............
    .@@......@@.
    .@@......@@.
    ..@@....@@..
    ...@@..@@...
    ....@@@@....
    .....@@.....
    ....@@@@....
    ...@@..@@...
    ..@@....@@..
    .@@......@@.
    .@@......@@.
    ............
    ............
    ............
    ............
    ............

u+0079:
"y":
    ............
    ............
    ............
    ............
    ............
    ............
    ............
    ............
    .@@......@@.
    .@@......@@.
    .@@......@@.
    .@@......@@.
    .@@......@@.
    .@@......@@.
    .@@......@@.
    .@@......@@.
    .@@......@@.
    ..@@....@@@.
    ...@@@@@@@@.
    .........@@.
    .........@@.
    ........@@..
    ..@@@@@@@...
    ............

u+007a:
"z":
    ............
    ............
    ............
    ............
    ............
    ............
    ............
    ............
    .@@@@@@@@@@.
    .........@@.
    ........@@..
    .......@@...
    ......@@....
    .....@@.....
    ....@@......
    ...@@.......
    ..@@........
    .@@.........
    .@@@@@@@@@@.
    ............
    ............
    ............
    ............
    ............

u+007b:
braceleft:
    ............
    ............
    ............
    ............
    ......@@@...
    .....@@.....
    ....@@......
    ....@@......
    ....@@......
    ....@@......
    ....@@......
    ..@@@.......
    ....@@......
    ....@@......
    ....@@......
    ....@@......
    ....@@......
    .....@@.....
    ......@@@...
    ............
    ............
    ............
    ............
    ............

u+007c:
bar:
    ............
    ............
    ............
    ............
    .....@@.....
    .....@@.....
    .....@@.....
    .....@@.....
    .....@@.....
    .....@@.....
    .....@@.....
    .....@@.....
    .....@@.....
    .....@@.....
    .....@@.....
    .....@@.....
    .....@@.....
    .....@@.....
    .....@@.....
    ............
    ............
    ............
    ............
    ............

u+007d:
braceright:
    ............
    ............
    ............
    ............
    ..@@@.......
    ....@@......
    .....@@.....
    .....@@.....
    .....@@.....
    .....@@.....
    .....@@.....
    ......@@@...
    .....@@.....
    .....@@.....
    .....@@.....
    .....@@.....
    .....@@.....
    ....@@......
    ..@@@.......
    ............
    ............
    ............
    ............
    ............

u+007e:
asciitilde:
    ............
    ............
    ..@@@@...@@.
    .@@..@@..@@.
    .@@..@@..@@.
    .@@...@@@@..
    ............
    ............
    ............
    ............
    ............
    ............
    ............
    ............
    ............
    ............
    ............
    ............
    ............
    ............
    ............
    ............
    ............
    ............

u+00a0:
nbspace:
    ............
    ............
    ............
    ............
    ............
    ............
    ............
    ............
    ............
    ............
    ............
    ............
    ............
    ............
    ............
    ............
    ............
    ............
    ............
    ............
    ............
    ............
    ............
    ............
